HIERARCHY
ROOT Hips
{
    OFFSET 13.225688934326172 94.27659225463867 -18.311296463012695
    CHANNELS 6 Xposition Yposition Zposition Zrotation Xrotation Yrotation
    JOINT RightUpLeg
    {
        OFFSET -13.225688934326172 0.0 0.0
        CHANNELS 3 Zrotation Xrotation Yrotation
        JOINT RightLeg
        {
            OFFSET 0.0 -48.498348236083984 0.0
            CHANNELS 3 Zrotation Xrotation Yrotation
            JOINT RightFoot
            {
                OFFSET 0.0 -45.77824401855469 0.0
                CHANNELS 3 Zrotation Xrotation Yrotation
                End Site
                {
                    OFFSET 0.0 0.0 18.311296463012695
                }
            }
        }
    }
    JOINT LeftUpLeg
    {
        OFFSET 13.225688934326172 0.0 0.0
        CHANNELS 3 Zrotation Xrotation Yrotation
        JOINT LeftLeg
        {
            OFFSET 0.0 -48.498348236083984 0.0
            CHANNELS 3 Zrotation Xrotation Yrotation
            JOINT LeftFoot
            {
                OFFSET 0.0 -45.77824401855469 0.0
                CHANNELS 3 Zrotation Xrotation Yrotation
                End Site
                {
                    OFFSET 0.0 0.0 18.311296463012695
                }
            }
        }
    }
    JOINT Spine
    {
        OFFSET 0.0 25.863996505737305 0.0
        CHANNELS 3 Zrotation Xrotation Yrotation
        JOINT Spine3
        {
            OFFSET 0.0 25.649696350097656 0.0
            CHANNELS 3 Zrotation Xrotation Yrotation
            JOINT Neck
            {
                OFFSET 0.0 11.566766738891602 0.0
                CHANNELS 3 Zrotation Xrotation Yrotation
                End Site
                {
                    OFFSET 0.0 4.626706600189209 0.0
                }
            }
            JOINT LeftArm
            {
                OFFSET 13.888811111450195 0.0 0.0
                CHANNELS 3 Zrotation Xrotation Yrotation
                JOINT LeftForeArm
                {
                    OFFSET 29.437061309814453 0.0 0.0
                    CHANNELS 3 Zrotation Xrotation Yrotation
                    JOINT LeftHand
                    {
                        OFFSET 23.665042877197266 0.0 0.0
                        CHANNELS 3 Zrotation Xrotation Yrotation
                        End Site
                        {
                            OFFSET 9.466018676757812 0.0 0.0
                        }
                    }
                }
            }
            JOINT RightArm
            {
                OFFSET -13.888811111450195 0.0 0.0
                CHANNELS 3 Zrotation Xrotation Yrotation
                JOINT RightForeArm
                {
                    OFFSET -29.437061309814453 0.0 0.0
                    CHANNELS 3 Zrotation Xrotation Yrotation
                    JOINT RightHand
                    {
                        OFFSET -23.665042877197266 0.0 0.0
                        CHANNELS 3 Zrotation Xrotation Yrotation
                        End Site
                        {
                            OFFSET -9.466018676757812 0.0 0.0
                        }
                    }
                }
            }
        }
    }
}
MOTION
Frames: 9
Frame Time: 0.03333333333333333
-0.0002504016156308353 94.98115539550781 -0.0006825386662967503 -8.050516318542401 -15.027905593264872 -22.182026670512453 4.160460142535295 27.481046269101554 -3.564010285727217 -3.1121123076396815 5.3249972388907505 -0.3435818588868936 3.9756933518293955e-16 5.172546443027529e-33 1.4908850069360234e-15 -1.0029774036846308 27.102413380350818 -1.154735567518752 0.7904787619261018 3.970134186153462 -0.21147530138475573 2.981770013872048e-16 -9.601539334869853e-33 -3.689940392166659e-15 5.6647896162430635 32.47003486046514 -4.967434141889475 6.361411240057806e-07 -6.3331226431747414e-09 -2.3050209095905934 0.5717698454673102 -5.66181277245106 -171.22977176268654 111.15662891963922 -31.18899220539008 -172.29292973732348 -2.5119581905909715e-06 -2.3496456481235552e-07 25.38502273543784 0.0 0.0 6.3611093629270335e-15 -114.06061329660697 -30.67580259239796 171.88296174328562 -6.9319853999738625e-06 2.556124234148078e-06 -27.02905154261503 -6.490008795818377e-15 0.0 0.0
-0.00025201946846209466 94.9811782836914 -0.0007034206646494567 -8.142649155021376 -14.920951984424871 -22.311885184662106 4.2543787338323344 27.405964552467047 -3.5731456675133755 -3.0879724426381276 5.203822896710223 -0.3415451631996195 1.9878466759146975e-16 3.2302508483613843e-15 1.2424041724466863e-15 -1.023637752013292 26.988992753172067 -1.115966401110794 0.8290793771290224 3.8521554416001567 -0.203417790289839 1.987846675914698e-16 1.2069275033730902e-33 6.957463365701443e-16 5.557210530561991 32.57653259215627 -4.89274378096928 -5.426743606973854e-07 6.838270971030418e-07 -2.1858559056394893 1.0100270939369715 -5.525030510323513 -171.56265043304765 110.69024987124088 -29.797904123931108 -172.66604115891786 -3.953763480659455e-06 -1.8537594178287095e-06 24.918259287930592 -9.541664044390549e-15 0.0 0.0 -114.03601515941415 -30.629502430856963 171.93039701548892 -3.6461494884083006e-07 -1.833000972475129e-06 -26.872844176075123 8.734101332300204e-15 0.0 0.0
-0.00024448512704111636 94.98124694824219 -0.0007319051073864102 -8.294251591696336 -14.602345941944442 -22.631768143445843 4.370474938278841 27.108809308854767 -3.530323397209687 -3.0389582508482422 5.096011253569519 -0.3392899885649607 -1.987846675914698e-16 -1.3362411644487784e-33 7.702905869169454e-16 -0.8265966955298827 26.677467024946537 -1.1338130220994243 0.8114125709083039 3.6541123397003172 -0.19600755114763838 0.0 0.0 5.963540027744093e-16 5.4881930847097955 32.426667234723645 -4.763582367101833 -2.337208191508004e-07 2.693731633246893e-07 -1.9444041956939104 1.5371502091494007 -5.3160989766912055 -171.79561074993057 110.17695257751527 -28.51090249721622 -173.3036302048602 -7.925749718607199e-07 -8.85928267928325e-07 24.630964038137414 1.7655625192200634e-31 -3.1805546814635168e-15 6.3611093629270335e-15 -113.74243092971822 -29.706307091801857 172.27392874764118 -3.9955322143880125e-06 2.4055081218001e-08 -26.565998143085643 -9.219415462162189e-15 0.0 0.0
-0.00025786811602301896 94.9811782836914 -0.000722622440662235 -8.150536574711827 -14.575022912388688 -22.53944847464612 4.195253065590252 26.96914212813818 -3.4607712483290327 -2.9377524855985944 5.195485084616115 -0.3466044499100092 4.310455369189608e-35 -4.969616689786745e-17 9.93923337957349e-17 -0.8719489209137548 26.673868158357436 -1.1402676977637873 0.4354986043558697 3.4469728963143833 -0.16303961258716024 -9.93923337957349e-17 -3.106010431116714e-18 -1.6306554763362757e-15 5.46296319605263 32.184646604334134 -4.750980549153348 6.094144680919652e-07 -9.569557490971728e-08 -1.923921680232397 1.5899123402877544 -5.152345131517641 -171.4385876353823 110.15858308775768 -28.54069503988674 -173.4775181475259 -1.7210413651328416e-07 5.15139133385222e-06 24.569249824620787 1.5902773407317582e-15 0.0 0.0 -114.26490220215547 -30.338086366957143 172.2518954428456 6.792624727096331e-07 -2.6629930260823334e-06 -26.609808653552857 3.863876976309194e-15 1.5902773407317584e-15 -5.362206479271872e-32
-0.00022753229131922126 94.98120880126953 -0.0007273112423717976 -8.19117007903669 -14.461574617959208 -22.49387463365894 4.298811378330569 26.845371916814077 -3.4763121829763035 -2.893706411641943 5.226372188976855 -0.35875313924879476 -5.963540027744093e-16 5.689801087330283e-33 -1.0933156717530838e-15 -0.49689207497296667 26.612426259644728 -1.2894512759368553 0.014755540371115674 3.402391476944264 -0.153940842079338 -6.212020862233431e-18 -4.1462876354021133e-35 7.648550686624912e-16 5.311935217019521 31.92943519159339 -4.616099438511081 6.081442873108607e-08 2.971776949639372e-07 -1.979658810756098 2.0195382399164625 -5.029774486957083 -172.1844966980234 110.02628716348974 -28.245321799928174 -174.01062240888513 1.9323657905293877e-06 -4.531571210990787e-06 24.614105545047668 1.5902773407317584e-15 -3.1805546814635168e-15 4.4139062980501586e-32 -114.1656924748689 -29.63809826048921 172.4613743143618 3.81769079469109e-06 -2.293328314903409e-06 -26.36727486018828 -7.65942172313382e-15 -1.5902773407317584e-15 -1.0629582940421572e-31
-0.00023742305347695947 94.98118591308594 -0.0007210746989585459 -8.082578881721489 -14.508902895444374 -22.112562426791406 4.315007096021668 26.984129144417203 -3.522674953114671 -2.8444109618983835 4.996391241324641 -0.3516222273338668 1.987846675914699e-16 -3.1308585145656493e-15 2.882377680076312e-15 -0.3081445657869961 26.55339948218947 -1.3929936919460142 -0.37487059828644104 3.3174317959625514 -0.1398833259901901 4.969616689786745e-16 -5.172546443027529e-33 -1.1927080055488188e-15 5.194167301635407 31.790873672018073 -4.561115471109978 -2.7177112651668376e-07 -1.1572198405859934e-06 -1.9187354914436514 2.1586032180637837 -4.719783691579599 -173.03145858269355 110.17219901394091 -28.285746184853693 -174.45861397097104 2.6131787036331103e-06 2.2240147943976946e-06 24.830303390030473 -3.1805546814635176e-15 3.1805546814635176e-15 8.827812596100317e-32 -114.61817263320454 -30.291978950450176 172.59831535379323 3.921272330479665e-06 -6.299062351768703e-07 -26.521770014896152 -3.130858514565649e-15 0.0 0.0
-0.00023699794837739319 94.981201171875 -0.000726100173778832 -8.122980934098935 -14.544318898025962 -22.080065623854104 4.369425409405391 26.99337674722239 -3.5599994866897204 -2.879454293610717 4.843725865848548 -0.34381477827974577 -1.987846675914698e-16 -4.969616689786745e-17 -9.193790876105477e-16 -0.22917008346540393 26.66015002670198 -1.4446777657292453 -0.4678771076019232 3.419960501571533 -0.14400156018555357 1.9878466759146975e-16 -1.5902773407317582e-15 -1.0063473796818157e-15 5.210187133452906 31.633396659001157 -4.562439774763322 1.2977211416435414e-07 2.1675458796864099e-07 -1.659628442076773 1.9957598244924446 -4.5659747880912045 -174.08030240622375 110.03510078723531 -28.035327509147127 -174.93522984119068 -1.0193352468328291e-06 5.630232689185903e-06 24.520978530635585 -3.531125038440127e-31 6.361109362927035e-15 6.361109362927035e-15 -114.78528871218937 -28.740135485841922 172.99517881055598 3.8178539513512085e-06 -3.3629689440211117e-06 -26.30447518920434 1.8014860500476953e-15 0.0 0.0
-0.00026695706765167415 94.9811782836914 -0.0007328038918785751 -7.8319765827547725 -14.678770786734798 -21.7223867035072 4.274029447879365 26.951935650994063 -3.5928816911463293 -3.3031135746431683 4.695588220383742 -0.304725003238576 7.951386703658792e-16 -3.1805546814635168e-15 6.212020862233431e-16 -0.5946089085980693 26.74390583762301 -1.3642184751107593 -0.330114043145128 3.3467325563769723 -0.1390585163288461 -4.472655020808071e-16 -1.2424041724466882e-17 4.721135855297408e-15 5.022272000241012 31.63823497237123 -4.557658485096854 -4.272425936617715e-07 1.2561194784037364e-06 -1.5279102129146676 1.730396006886184 -4.597199683786558 -173.26505467836668 109.9775524763648 -26.954772349893215 -175.46160495187414 -5.755190811925077e-07 4.663699929601118e-06 24.33526800795433 -3.1805546814635168e-15 -1.7655625192200634e-31 6.3611093629270335e-15 -114.89086953677376 -27.72109471934876 173.21405126358925 2.6836255054692542e-06 7.635679725784854e-07 -25.995302335469255 -8.249563705045997e-15 -1.5902773407317584e-15 1.5902773407317582e-15
-0.00024654390290379524 94.98118591308594 -0.0007286304025910795 -7.680935436689473 -14.752169544598493 -21.399824979542057 4.179854633095768 26.982039841090224 -3.5998515600114755 -3.165755650515702 4.776311672270698 -0.32181184225147574 -3.975693351829396e-16 -3.4483642953516864e-33 9.93923337957349e-16 -0.736684334913296 26.660822542434172 -1.3419933109973237 -0.271279707621937 3.4690861397411275 -0.14561407333721182 -4.969616689786745e-17 -1.2424041724466862e-17 1.3293724645179542e-15 5.008012529760763 31.438461919399025 -4.578133298950148 -3.9310536903903947e-07 -9.195722676855638e-08 -1.365028976281301 1.5215738521394913 -4.3510039891788 -173.24461589129027 109.63487924869341 -26.040972358380678 -176.01389982818463 -2.5087634287286024e-06 3.4061970929646512e-06 23.87622460870019 -3.1805546814635168e-15 -6.3611093629270335e-15 -6.3611093629270335e-15 -114.6142833987861 -25.573745788303608 173.68483796659734 -3.130410222916726e-07 -2.948006090542316e-06 -25.131222286142187 4.70871181357294e-15 6.534650339691446e-32 1.5902773407317582e-15
